<?xml version="1.0" standalone="no"?>
<!DOCTYPE svg PUBLIC "-//W3C//DTD SVG 20010904//EN"
 "http://www.w3.org/TR/2001/REC-SVG-20010904/DTD/svg10.dtd">
<svg version="1.0" xmlns="http://www.w3.org/2000/svg"
 width="64.000000pt" height="64.000000pt" viewBox="0 0 64.000000 64.000000"
 preserveAspectRatio="xMidYMid meet">

<g transform="translate(0.000000,64.000000) scale(0.100000,-0.100000)"
fill="#000000" stroke="none">
<path d="M357 487 c-20 -15 -128 -303 -121 -322 8 -20 36 -28 50 -13 19 20
124 307 118 323 -8 20 -30 25 -47 12z"/>
<path d="M109 392 c-30 -30 -49 -58 -49 -72 0 -33 92 -123 122 -118 37 5 34
36 -8 79 l-38 39 38 39 c42 43 45 74 8 79 -17 3 -37 -10 -73 -46z"/>
<path d="M437 433 c-15 -14 -5 -39 30 -75 l37 -38 -38 -39 c-42 -43 -45 -74
-8 -79 30 -5 122 85 122 118 0 47 -117 140 -143 113z"/>
</g>
</svg>
